<?xml version="1.0" encoding="utf-8"?>
<!-- Generator: Adobe Illustrator 21.0.2, SVG Export Plug-In . SVG Version: 6.00 Build 0)  -->
<svg version="1.1" id="Layer_1" xmlns="http://www.w3.org/2000/svg" xmlns:xlink="http://www.w3.org/1999/xlink" x="0px" y="0px"
	 viewBox="0 0 402.3 142.5" style="enable-background:new 0 0 402.3 142.5;" xml:space="preserve">
<text transform="matrix(1 0 0 1 8.2876 116.9653)" style="display:none; font-family:'MoonFlowerBold'; font-size:142px;">Puppy Tab</text>
<text transform="matrix(1 0 0 1 147.368 2.2529)" style="display:none; font-family:'Belgrano-Regular'; font-size:72px;">Puppy Tab</text>
<g>
	<path d="M22.4,18.2c9.8,0,16.5,4.3,20,13c0.6,1.9,1,4.1,1.2,6.7c0,11.7-2.1,24.5-6.2,38.5c-2.1,3.7-5.2,6.5-9.2,8.5
		c-1.4,0-2.1-0.1-2.1-0.6v0.3c0,2.4,0.1,4.4,0.3,6.1c-0.2,1.7-0.3,2.6-0.3,2.8c0.6,10.4,0.8,16.1,0.8,16.9c0.6,0.1,0.8,1.2,0.8,3.3
		v1c-0.7,1.9-1.7,3.2-3,3.7h-1c-1,0-1.9-0.7-2.8-2.1v-2.3v-1.7c-0.1-0.8-0.3-2.7-0.6-5.8c0-1.2,0.1-1.7,0.2-1.7l-0.8-10.3
		c0.2-1.9,0.3-3.3,0.3-4.2c-0.2-3.4-0.3-5.2-0.3-5.6c-0.7-0.4-1.1-1.1-1.1-2.3c0.4-1.6,0.7-2.4,1-2.4c-0.3-3.9-0.4-6.4-0.4-7.5
		l1.3-49.1c-0.3,0-0.5-0.6-0.5-1.9v-0.8C20.1,20,20.9,19.2,22.4,18.2z M26.9,24.1l-1.3,48.5c0.2,3.9,0.3,6.3,0.3,7.3l-0.7-0.3
		c1.2,0,2.8-1,4.6-2.9c2.9-1.8,5.3-12.9,7.3-33.2c0.2-3.3,0.3-5.5,0.3-6.6c0-4.4-2.5-8.3-7.5-11.9C28.5,24.5,27.5,24.2,26.9,24.1z"
		/>
	<path d="M61.8,18h1.7c1.8,0.9,2.7,2.1,2.7,3.6v1.4c1.6,30,3.6,54.2,6,72.5c1.5,11.6,3.3,17.3,5.4,17.3c1.5-0.6,2.3-1.9,2.3-3.9
		c0-7.3-0.8-25.6-2.3-54.9c0.2-5.4,0.3-10.5,0.3-15.5v-6.6L77.6,30l0.3-0.6c-0.1-2.3-0.4-5-0.9-8.1l2.3-1.7h1.5c1.8,0,3,3.1,3.4,9.2
		c0,1.3-0.1,1.9-0.2,1.9c0.1,1.8,0.2,3.4,0.2,4.7v8.9L83.9,46c0-0.8,0.1-1.2,0.3-1.2C84,48,83.9,50,83.9,51v1.1
		c1.5,32.2,2.2,51.1,2.2,56.9c-0.6,6.2-3.6,9.4-8.9,9.4c-6.1,0-10-9.3-11.7-27.9c-2-15.9-4-39.5-5.9-70.9L61.8,18z"/>
	<path d="M109.3,18.2c9.8,0,16.5,4.3,20,13c0.6,1.9,1,4.1,1.2,6.7c0,11.7-2.1,24.5-6.2,38.5c-2.1,3.7-5.2,6.5-9.2,8.5
		c-1.4,0-2.1-0.1-2.1-0.6v0.3c0,2.4,0.1,4.4,0.3,6.1c-0.2,1.7-0.3,2.6-0.3,2.8c0.6,10.4,0.8,16.1,0.8,16.9c0.6,0.1,0.8,1.2,0.8,3.3
		v1c-0.7,1.9-1.7,3.2-3,3.7h-1c-1,0-1.9-0.7-2.8-2.1v-2.3v-1.7c-0.1-0.8-0.3-2.7-0.6-5.8c0-1.2,0.1-1.7,0.2-1.7l-0.8-10.3
		c0.2-1.9,0.3-3.3,0.3-4.2c-0.2-3.4-0.3-5.2-0.3-5.6c-0.7-0.4-1.1-1.1-1.1-2.3c0.4-1.6,0.7-2.4,1-2.4c-0.3-3.9-0.4-6.4-0.4-7.5
		l1.3-49.1c-0.3,0-0.5-0.6-0.5-1.9v-0.8C107,20,107.8,19.2,109.3,18.2z M113.7,24.1l-1.3,48.5c0.2,3.9,0.3,6.3,0.3,7.3l-0.7-0.3
		c1.2,0,2.8-1,4.6-2.9c2.9-1.8,5.3-12.9,7.3-33.2c0.2-3.3,0.3-5.5,0.3-6.6c0-4.4-2.5-8.3-7.5-11.9C115.4,24.5,114.4,24.2,113.7,24.1
		z"/>
	<path d="M147.8,18.2c9.8,0,16.5,4.3,20,13c0.6,1.9,1,4.1,1.2,6.7c0,11.7-2.1,24.5-6.2,38.5c-2.1,3.7-5.2,6.5-9.2,8.5
		c-1.4,0-2.1-0.1-2.1-0.6v0.3c0,2.4,0.1,4.4,0.3,6.1c-0.2,1.7-0.3,2.6-0.3,2.8c0.6,10.4,0.8,16.1,0.8,16.9c0.6,0.1,0.8,1.2,0.8,3.3
		v1c-0.7,1.9-1.7,3.2-3,3.7h-1c-1,0-1.9-0.7-2.8-2.1v-2.3v-1.7c-0.1-0.8-0.3-2.7-0.6-5.8c0-1.2,0.1-1.7,0.2-1.7l-0.8-10.3
		c0.2-1.9,0.3-3.3,0.3-4.2c-0.2-3.4-0.3-5.2-0.3-5.6c-0.7-0.4-1.1-1.1-1.1-2.3c0.4-1.6,0.7-2.4,1-2.4c-0.3-3.9-0.4-6.4-0.4-7.5
		l1.3-49.1c-0.3,0-0.5-0.6-0.5-1.9v-0.8C145.5,20,146.3,19.2,147.8,18.2z M152.2,24.1l-1.3,48.5c0.2,3.9,0.3,6.3,0.3,7.3l-0.7-0.3
		c1.2,0,2.8-1,4.6-2.9c2.9-1.8,5.3-12.9,7.3-33.2c0.2-3.3,0.3-5.5,0.3-6.6c0-4.4-2.5-8.3-7.5-11.9C153.9,24.5,152.9,24.2,152.2,24.1
		z"/>
	<path d="M208.5,24.6h1.2c1,0,1.9,0.7,2.8,2.1v0.7c-1.5,13.3-3.1,26.2-4.7,38.8l0.3,1.6v2.3c-0.7,0-1.7,8.7-3.1,26.1
		c-0.6,9.2-1.2,16.3-2.1,21.3l-1.7,0.8h-1.6c-1.1-0.3-1.9-1.1-2.6-2.6c2-24.6,3.5-40.5,4.4-47.8c-4.9-10.6-11.3-21.2-19.3-32
		c-1.8-1.2-2.6-2.6-2.6-4v-0.6c0-0.7,0.8-1.6,2.3-2.5h2.1c1.3,0.5,2.2,1.7,2.8,3.6c7.3,9.1,13.3,18.5,17.9,28.3h-2.5
		c1.9-16.8,3.4-28.5,4.4-35.1L208.5,24.6z"/>
	<path d="M290,25.2l1.8,2.1v1.1c0,1.7-3.2,2.6-9.5,2.6h-7.8c0.6,0,0.9-0.1,0.9-0.2l0.6,12.5c-0.2,1.2-0.3,1.8-0.3,1.9
		c1.7,28,2.5,47.9,2.5,59.8c0.2,0.3,0.3,0.8,0.3,1.4c-0.2,0.3-0.3,0.4-0.3,0.3l0.3,1.9c-0.6,1.5-1.5,2.2-2.6,2.2h-1.1
		c-0.8,0-1.7-0.6-2.8-1.9c0-0.6,0.1-1.7,0.3-3.1c0-3.9-0.8-23.9-2.5-59.8c0-5.8-0.2-10.9-0.5-15.3l0.6,0.3h-0.3l-9.7,0.8
		c-1.2-1.3-1.8-2.5-1.8-3.6c0-0.8,0.9-1.6,2.6-2.5c1.6,0.4,2.4,0.6,2.4,0.6c3.6-0.3,6.1-0.5,7.6-0.5H282
		C284.3,25.8,286.9,25.6,290,25.2z"/>
	<path d="M315.1,20.9h0.7c3.3,1.5,6,5.1,8,10.8c5.2,16,9,36.4,11.4,61.2c1.6,8,2.4,15.2,2.4,21.5c-0.6,1.4-2.1,2.1-4.8,2.1
		c-1.1-2.1-2.4-9.9-3.9-23.2c-0.4-1.4-1.3-7.2-2.6-17.4l-0.6-0.1c-8.8,0.8-13.2,1.4-13.2,1.7v10.8l-1.9,25.4
		c0.4,0.6,0.6,1.3,0.6,2.1c0,0.8-0.8,1.7-2.4,2.6c-3.1,0-4.7-1.5-4.7-4.5c1.4-19.5,2.1-31.2,2.1-35.1c-0.2-2.5-0.3-5.1-0.3-7.8
		c0.1-13.4,1.2-27.5,3.3-42.4C310.4,23.5,312.3,20.9,315.1,20.9z M316.3,28.1c-2.4,9.1-3.5,22.2-3.5,39.5c-0.2,0-0.3,1.8-0.3,5.3v-1
		c4.5-1.2,8.9-1.9,13.4-1.9v1c0-5.5-3.1-18.8-9.2-39.7C315.6,28.8,315.5,27.7,316.3,28.1z"/>
	<path d="M365.4,14.6c6.8,0,10.9,6.4,12.3,19.3v5.4c-0.9,6.7-4,14-9.4,21.8c-0.2,0-0.6,0.5-1.2,1.2v-1c3.5,1.3,6.5,4.1,9,8.3
		c2.5,3.8,4.3,9.6,5.1,17.5c0,9.8-2.1,18.2-6.3,25.2c-3,3.2-6,5.2-9,6h-0.8c-3.7,0-5.6-3.6-5.6-10.7c-2.2-31.8-3.3-56.3-3.3-73.5
		c-0.4-4.9-0.9-9.8-1.7-14.7C358.2,16.2,361.9,14.6,365.4,14.6z M361.1,21.7c1.4,11.2,2.1,27.5,2.1,48.9c0.7,8.7,1.7,22.7,2.8,42
		l-0.1-0.1c2.6-1.1,4.6-3.4,5.9-6.9c2.2-6.1,3.3-12.2,3.3-18.2c-1.3-8-2.4-12-3.2-12c-1.3-4-3.9-7-7.6-9.2c-1.9,0-3.4-0.9-4.5-2.8
		v-1.5c6.1-6.8,9.9-14.2,11.6-22.2v-4.2c-0.8-10.2-2.8-15.3-6-15.3C363.6,20.2,362.2,20.7,361.1,21.7z"/>
</g>
</svg>
